<svg width="55" height="52" viewBox="0 0 55 52" fill="none" xmlns="http://www.w3.org/2000/svg">
<path d="M24.9229 52C24.3564 52 22.8614 52 21.97 50.8671C21.2643 49.9757 21.3107 48.9171 21.4686 48.1L21.3386 48.0629C18.46 47.2829 15.4886 46.4657 12.61 45.3886C8.45 43.7914 6.91786 41.1543 7.475 36.5857C7.78143 34.06 8.23643 31.5343 8.81214 29.0271C8.39429 29.7886 7.98571 30.55 7.55857 31.3393C7.11286 32.1657 6.66714 33.0014 6.20286 33.8371C5.96143 34.32 5.12571 35.9914 3.21286 35.9914C2.925 35.9914 2.62786 35.9543 2.33071 35.8707C0 35.23 0 33.0571 0 32.24V14.0214C0 12.3036 0.789286 11.0314 2.34 10.2607C6.52786 8.13429 10.725 6.00786 14.9129 3.88143L21.5429 0.529286C22.2579 0.167143 22.9357 0 23.6136 0C24.2914 0 24.9693 0.167143 25.675 0.52C31.6364 3.58429 37.6721 6.64857 43.6521 9.63857C45.37 10.5764 46.1314 11.9136 45.9829 13.65C45.9271 14.6993 45.9457 15.8043 45.9736 16.9743C45.9736 17.5129 45.9921 18.0514 45.9921 18.5807C47.8864 18.7571 49.8271 18.9336 51.675 19.1936L51.7771 19.2121C52.6964 19.3979 54.1357 20.3079 54.4421 21.5521L54.4793 21.6914V21.84C55.0457 28.1636 53.4579 33.02 49.6321 36.6693C49.1029 37.1986 48.3786 37.6536 47.6543 37.9229C47.8307 38.9907 47.6914 40.4486 46.2057 41.6743C46.1871 41.7207 46.1686 41.7857 46.1686 41.8229C46.1129 43.2993 46.1314 44.7571 46.15 46.1686C46.1593 46.9114 46.1686 47.645 46.1686 48.3879C46.1686 50.8207 44.9893 52 42.5564 52H24.9229Z" fill="white"/>
<path d="M43.6891 38.2944C43.3362 37.1523 42.6398 36.8923 41.5812 36.7994C39.5662 36.5394 37.6348 36.2702 35.7034 35.7502C34.7376 35.4902 33.8648 34.5244 33.0755 33.8187C32.8155 33.6423 33.0755 32.9459 33.0755 32.5002C33.5119 32.5837 34.2176 32.4166 34.3941 32.6766C35.6198 34.0787 37.2912 34.5152 39.0369 34.7844C39.9098 34.9609 40.8755 34.9609 41.7576 35.0444C47.3662 35.5737 49.2141 31.6273 50.3469 27.588C50.4305 27.1516 49.9941 26.3623 49.5576 26.093C48.2391 25.2202 46.9298 24.4309 46.2241 22.9359C46.0476 22.583 45.3512 22.2302 44.8219 22.2302C42.8905 21.9702 40.8755 21.8773 38.9441 21.5244C38.4148 21.4409 37.7184 21.088 37.5419 20.6516C35.3505 15.3866 30.6148 14.2537 25.6191 13.9009C23.3441 13.7244 20.8834 13.9844 18.6084 14.2537C16.6769 14.4302 15.0984 15.3959 14.0491 16.9744C12.2105 19.7787 10.4555 22.583 8.7005 25.4802C7.2055 27.9316 5.97979 30.3923 4.57765 32.9366C4.22479 33.6423 3.78836 34.3387 2.82265 34.0787C1.85693 33.8187 1.85693 33.0294 1.85693 32.2402V14.0216C1.85693 12.9723 2.29336 12.3594 3.17551 11.9137C9.57336 8.66373 15.9712 5.42302 22.3784 2.1823C23.2512 1.74587 23.9569 1.74587 24.8298 2.1823C30.7912 5.24659 36.8455 8.32016 42.8069 11.3009C43.7726 11.8302 44.2091 12.443 44.1255 13.4923C44.0419 15.2473 44.1255 17.0023 44.1255 18.748C44.1255 19.7973 44.6548 20.3266 45.7041 20.4102C47.6355 20.5866 49.5576 20.763 51.4055 21.023C51.8419 21.1066 52.5476 21.6359 52.6312 21.9887C53.0676 26.9844 52.1948 31.6366 48.3319 35.3137C47.9791 35.6666 47.4591 36.0194 46.9298 36.1866C45.9641 36.5394 45.5276 37.1523 45.7876 38.118C45.9641 38.9909 45.7041 39.6966 44.9148 40.3094C44.5619 40.5694 44.3019 41.2752 44.3019 41.8044C44.2184 43.9959 44.3019 46.1873 44.3019 48.3787C44.3019 49.7809 43.9491 50.1337 42.5469 50.1337H24.9226C23.4276 50.1337 22.9912 49.6973 23.3441 48.2023C23.6041 46.9766 22.9912 46.5402 21.8491 46.2709C18.9519 45.4816 16.0641 44.6923 13.2598 43.643C9.84265 42.3244 8.87693 40.4023 9.31336 36.8087C9.92622 31.813 11.0684 26.9009 12.7305 22.0816C12.9905 21.3759 13.2598 20.5866 13.6962 19.9737C13.8726 19.7137 14.4855 19.7137 14.9219 19.5373C15.0984 19.9737 15.4512 20.503 15.3584 20.8559C14.2162 24.8859 12.9905 28.9252 11.8484 32.9552C11.4955 34.1809 11.4119 35.4994 11.2355 36.7252C10.8826 39.7894 11.3191 40.848 14.1326 42.1573C17.5498 43.7359 21.1434 44.7016 25.0062 44.878C28.0705 45.0544 30.7076 42.2502 30.1784 39.2694C29.8255 37.2544 28.9526 35.1466 27.9034 33.308C26.6776 31.293 24.9226 29.538 23.5205 27.6066C22.3784 26.028 21.5055 24.3659 20.6234 22.6944C20.2705 22.0816 20.2705 21.2923 20.3634 20.5866C20.4469 20.1502 20.9762 19.7137 21.3291 19.268C21.5891 19.7044 22.2019 20.1409 22.2019 20.5866C22.2019 22.6016 23.1676 24.1802 24.3934 25.6752C25.5355 27.0773 26.9376 28.303 27.9034 29.8816C29.3891 32.1566 30.6241 34.6173 31.8498 37.0687C32.2026 37.7744 32.6391 38.2944 33.4284 38.2944C34.8305 38.2944 36.3255 38.2944 37.7276 38.118C39.4826 37.858 41.2376 37.6816 42.9834 38.2944C42.9834 38.2109 43.3362 38.2109 43.6891 38.2944Z" fill="#FFD23F"/>
<path d="M34.7473 22.7778C34.218 23.3071 33.698 24.2728 33.1687 24.3563C32.0266 24.5328 31.8502 23.4835 31.7666 22.6014C31.7666 21.7285 32.0266 20.7628 33.0852 20.6699C34.1345 20.6699 34.4037 21.6356 34.7473 22.7778V22.7778Z" fill="#FFD23F"/>
</svg>
