<svg width="55" height="52" viewBox="0 0 55 52" fill="none" xmlns="http://www.w3.org/2000/svg">
<path d="M24.9229 52C24.3564 52 22.8614 52 21.97 50.8671C21.2643 49.9757 21.3107 48.9171 21.4686 48.1L21.3386 48.0629C18.46 47.2829 15.4886 46.4657 12.61 45.3886C8.45 43.7914 6.91786 41.1543 7.475 36.5857C7.78143 34.06 8.23643 31.5343 8.81214 29.0271C8.39429 29.7886 7.98571 30.55 7.55857 31.3393C7.11286 32.1657 6.66714 33.0014 6.20286 33.8371C5.96143 34.32 5.12571 35.9914 3.21286 35.9914C2.925 35.9914 2.62786 35.9543 2.33071 35.8707C0 35.23 0 33.0571 0 32.24V14.0214C0 12.3036 0.789286 11.0314 2.34 10.2607C6.52786 8.13429 10.725 6.00786 14.9129 3.88143L21.5429 0.529286C22.2579 0.167143 22.9357 0 23.6136 0C24.2914 0 24.9693 0.167143 25.675 0.52C31.6364 3.58429 37.6721 6.64857 43.6521 9.63857C45.37 10.5764 46.1314 11.9136 45.9829 13.65C45.9271 14.6993 45.9457 15.8043 45.9736 16.9743C45.9736 17.5129 45.9921 18.0514 45.9921 18.5807C47.8864 18.7571 49.8271 18.9336 51.675 19.1936L51.7771 19.2121C52.6964 19.3979 54.1357 20.3079 54.4421 21.5521L54.4793 21.6914V21.84C55.0457 28.1636 53.4579 33.02 49.6321 36.6693C49.1029 37.1986 48.3786 37.6536 47.6543 37.9229C47.8307 38.9907 47.6914 40.4486 46.2057 41.6743C46.1871 41.7207 46.1686 41.7857 46.1686 41.8229C46.1129 43.2993 46.1314 44.7571 46.15 46.1686C46.1593 46.9114 46.1686 47.645 46.1686 48.3879C46.1686 50.8207 44.9893 52 42.5564 52H24.9229Z" fill="white"/>
<path d="M43.6893 38.2944C43.3365 37.1523 42.64 36.8923 41.5815 36.7994C39.5665 36.5394 37.635 36.2702 35.7036 35.7502C34.7379 35.4902 33.865 34.5244 33.0757 33.8187C32.8157 33.6423 33.0757 32.9459 33.0757 32.5002C33.5122 32.5837 34.2179 32.4166 34.3943 32.6766C35.62 34.0787 37.2915 34.5152 39.0372 34.7844C39.91 34.9609 40.8757 34.9609 41.7579 35.0444C47.3665 35.5737 49.2143 31.6273 50.3472 27.588C50.4307 27.1516 49.9943 26.3623 49.5579 26.093C48.2393 25.2202 46.93 24.4309 46.2243 22.9359C46.0479 22.583 45.3515 22.2302 44.8222 22.2302C42.8907 21.9702 40.8757 21.8773 38.9443 21.5244C38.415 21.4409 37.7186 21.088 37.5422 20.6516C35.3507 15.3866 30.615 14.2537 25.6193 13.9009C23.3443 13.7244 20.8836 13.9844 18.6086 14.2537C16.6772 14.4302 15.0986 15.3959 14.0493 16.9744C12.2107 19.7787 10.4557 22.583 8.70075 25.4802C7.20575 27.9316 5.98003 30.3923 4.57789 32.9366C4.22503 33.6423 3.78861 34.3387 2.82289 34.0787C1.85718 33.8187 1.85718 33.0294 1.85718 32.2402V14.0216C1.85718 12.9723 2.29361 12.3594 3.17575 11.9137C9.57361 8.66373 15.9715 5.42302 22.3786 2.1823C23.2515 1.74587 23.9572 1.74587 24.83 2.1823C30.7915 5.24659 36.8457 8.32016 42.8072 11.3009C43.7729 11.8302 44.2093 12.443 44.1257 13.4923C44.0422 15.2473 44.1257 17.0023 44.1257 18.748C44.1257 19.7973 44.655 20.3266 45.7043 20.4102C47.6357 20.5866 49.5579 20.763 51.4057 21.023C51.8422 21.1066 52.5479 21.6359 52.6315 21.9887C53.0679 26.9844 52.195 31.6366 48.3322 35.3137C47.9793 35.6666 47.4593 36.0194 46.93 36.1866C45.9643 36.5394 45.5279 37.1523 45.7879 38.118C45.9643 38.9909 45.7043 39.6966 44.915 40.3094C44.5622 40.5694 44.3022 41.2752 44.3022 41.8044C44.2186 43.9959 44.3022 46.1873 44.3022 48.3787C44.3022 49.7809 43.9493 50.1337 42.5472 50.1337H24.9229C23.4279 50.1337 22.9915 49.6973 23.3443 48.2023C23.6043 46.9766 22.9915 46.5402 21.8493 46.2709C18.9522 45.4816 16.0643 44.6923 13.26 43.643C9.84289 42.3244 8.87718 40.4023 9.31361 36.8087C9.92646 31.813 11.0686 26.9009 12.7307 22.0816C12.9907 21.3759 13.26 20.5866 13.6965 19.9737C13.8729 19.7137 14.4857 19.7137 14.9222 19.5373C15.0986 19.9737 15.4515 20.503 15.3586 20.8559C14.2165 24.8859 12.9907 28.9252 11.8486 32.9552C11.4957 34.1809 11.4122 35.4994 11.2357 36.7252C10.8829 39.7894 11.3193 40.848 14.1329 42.1573C17.55 43.7359 21.1436 44.7016 25.0065 44.878C28.0707 45.0544 30.7079 42.2502 30.1786 39.2694C29.8258 37.2544 28.9529 35.1466 27.9036 33.308C26.6779 31.293 24.9229 29.538 23.5207 27.6066C22.3786 26.028 21.5057 24.3659 20.6236 22.6944C20.2707 22.0816 20.2707 21.2923 20.3636 20.5866C20.4472 20.1502 20.9765 19.7137 21.3293 19.268C21.5893 19.7044 22.2022 20.1409 22.2022 20.5866C22.2022 22.6016 23.1679 24.1802 24.3936 25.6752C25.5357 27.0773 26.9379 28.303 27.9036 29.8816C29.3893 32.1566 30.6243 34.6173 31.85 37.0687C32.2029 37.7744 32.6393 38.2944 33.4286 38.2944C34.8307 38.2944 36.3257 38.2944 37.7279 38.118C39.4829 37.858 41.2379 37.6816 42.9836 38.2944C42.9836 38.2109 43.3365 38.2109 43.6893 38.2944Z" fill="#8C15B7"/>
<path d="M34.7471 22.7778C34.2178 23.3071 33.6978 24.2728 33.1685 24.3563C32.0264 24.5328 31.8499 23.4835 31.7664 22.6014C31.7664 21.7285 32.0264 20.7628 33.0849 20.6699C34.1342 20.6699 34.4035 21.6356 34.7471 22.7778V22.7778Z" fill="#8C15B7"/>
</svg>
